<svg width="24" height="24" viewBox="0 0 24 24" fill="none" xmlns="http://www.w3.org/2000/svg">
<g id="CS">
<circle id="Ellipse 65" cx="12" cy="12" r="12" fill="#D1316C"/>
<path id="Vector 187" d="M3.02868 20.5579L3.02006 20.5666C2.99036 20.5367 2.99398 20.5353 3.02868 20.5579L20.492 3C23.1392 6.19392 26.8454 14.1787 20.492 20.5666C12.9957 28.1035 3.61253 20.9379 3.02868 20.5579Z" fill="#9F194B"/>
<path id="CS_2" d="M11.4766 14.8418C11.3535 15.8945 10.9639 16.708 10.3076 17.2822C9.65592 17.8519 8.78776 18.1367 7.70312 18.1367C6.52734 18.1367 5.58398 17.7152 4.87305 16.8721C4.16667 16.029 3.81348 14.901 3.81348 13.4883V12.5312C3.81348 11.6061 3.97754 10.7926 4.30566 10.0908C4.63835 9.389 5.10775 8.85124 5.71387 8.47754C6.31999 8.09928 7.02181 7.91016 7.81934 7.91016C8.87663 7.91016 9.72428 8.20638 10.3623 8.79883C11.0003 9.38672 11.3717 10.2025 11.4766 11.2461H10.1572C10.0433 10.4531 9.79492 9.87891 9.41211 9.52344C9.03385 9.16797 8.50293 8.99023 7.81934 8.99023C6.98079 8.99023 6.32227 9.30013 5.84375 9.91992C5.36979 10.5397 5.13281 11.4215 5.13281 12.5654V13.5293C5.13281 14.6094 5.3584 15.4684 5.80957 16.1064C6.26074 16.7445 6.89193 17.0635 7.70312 17.0635C8.43229 17.0635 8.99056 16.8994 9.37793 16.5713C9.76986 16.2386 10.0296 15.6621 10.1572 14.8418H11.4766ZM16.207 13.5635C15.0814 13.2399 14.2611 12.8434 13.7461 12.374C13.2357 11.9001 12.9805 11.3167 12.9805 10.624C12.9805 9.84017 13.2926 9.19303 13.917 8.68262C14.5459 8.16764 15.3617 7.91016 16.3643 7.91016C17.0479 7.91016 17.6562 8.04232 18.1895 8.30664C18.7272 8.57096 19.1419 8.93555 19.4336 9.40039C19.7298 9.86523 19.8779 10.3734 19.8779 10.9248H18.5586C18.5586 10.3232 18.3672 9.85156 17.9844 9.50977C17.6016 9.16341 17.0615 8.99023 16.3643 8.99023C15.7171 8.99023 15.2113 9.13379 14.8467 9.4209C14.4867 9.70345 14.3066 10.0977 14.3066 10.6035C14.3066 11.0091 14.4775 11.3532 14.8193 11.6357C15.1657 11.9137 15.7513 12.1689 16.5762 12.4014C17.4056 12.6338 18.0527 12.8913 18.5176 13.1738C18.987 13.4518 19.3333 13.7777 19.5566 14.1514C19.7845 14.5251 19.8984 14.9648 19.8984 15.4707C19.8984 16.2773 19.584 16.9245 18.9551 17.4121C18.3262 17.8952 17.4854 18.1367 16.4326 18.1367C15.749 18.1367 15.111 18.0068 14.5186 17.7471C13.9261 17.4827 13.4681 17.1227 13.1445 16.667C12.8255 16.2113 12.666 15.694 12.666 15.1152H13.9854C13.9854 15.7168 14.2064 16.193 14.6484 16.5439C15.0951 16.8903 15.6898 17.0635 16.4326 17.0635C17.1253 17.0635 17.6562 16.9222 18.0254 16.6396C18.3945 16.3571 18.5791 15.972 18.5791 15.4844C18.5791 14.9967 18.4082 14.6208 18.0664 14.3564C17.7246 14.0876 17.1048 13.8232 16.207 13.5635Z" fill="white"/>
</g>
</svg>
